<?xml version="1.0" encoding="utf-8"?>
<svg viewBox="131.95 183.517 111.9 30.625" xmlns="http://www.w3.org/2000/svg">
  <g fill="#ff3131" fill-opacity="1">
    <g transform="translate(129.637496, 206.345598)">
      <g>
        <path d="M 10.3125 -16.734375 C 12.3125 -16.734375 13.929688 -16.128906 15.171875 -14.921875 C 16.421875 -13.710938 17.046875 -11.96875 17.046875 -9.6875 L 17.046875 0 L 14.34375 0 L 14.34375 -9.296875 C 14.34375 -10.941406 13.929688 -12.195312 13.109375 -13.0625 C 12.285156 -13.9375 11.164062 -14.375 9.75 -14.375 C 8.3125 -14.375 7.164062 -13.921875 6.3125 -13.015625 C 5.46875 -12.117188 5.046875 -10.8125 5.046875 -9.09375 L 5.046875 0 L 2.3125 0 L 2.3125 -16.4375 L 5.046875 -16.4375 L 5.046875 -14.09375 C 5.578125 -14.9375 6.304688 -15.585938 7.234375 -16.046875 C 8.171875 -16.503906 9.195312 -16.734375 10.3125 -16.734375 Z M 10.3125 -16.734375 "/>
      </g>
    </g>
  </g>
  <g fill="#ff3131" fill-opacity="1">
    <g transform="translate(148.837477, 206.345598)">
      <g>
        <path d="M 5.046875 -22.203125 L 5.046875 0 L 2.3125 0 L 2.3125 -22.203125 Z M 5.046875 -22.203125 "/>
      </g>
    </g>
  </g>
  <g fill="#ff3131" fill-opacity="1">
    <g transform="translate(156.217473, 206.345598)">
      <g>
        <path d="M 5.046875 -13.40625 C 5.578125 -14.34375 6.378906 -15.125 7.453125 -15.75 C 8.523438 -16.382812 9.769531 -16.703125 11.1875 -16.703125 C 12.644531 -16.703125 13.96875 -16.351562 15.15625 -15.65625 C 16.351562 -14.957031 17.289062 -13.972656 17.96875 -12.703125 C 18.644531 -11.429688 18.984375 -9.957031 18.984375 -8.28125 C 18.984375 -6.625 18.644531 -5.144531 17.96875 -3.84375 C 17.289062 -2.539062 16.351562 -1.53125 15.15625 -0.8125 C 13.96875 -0.09375 12.644531 0.265625 11.1875 0.265625 C 9.789062 0.265625 8.554688 -0.046875 7.484375 -0.671875 C 6.410156 -1.304688 5.597656 -2.09375 5.046875 -3.03125 L 5.046875 7.796875 L 2.3125 7.796875 L 2.3125 -16.4375 L 5.046875 -16.4375 Z M 16.203125 -8.28125 C 16.203125 -9.519531 15.953125 -10.597656 15.453125 -11.515625 C 14.953125 -12.441406 14.273438 -13.144531 13.421875 -13.625 C 12.578125 -14.101562 11.644531 -14.34375 10.625 -14.34375 C 9.625 -14.34375 8.695312 -14.097656 7.84375 -13.609375 C 6.988281 -13.117188 6.304688 -12.40625 5.796875 -11.46875 C 5.296875 -10.539062 5.046875 -9.46875 5.046875 -8.25 C 5.046875 -7.007812 5.296875 -5.921875 5.796875 -4.984375 C 6.304688 -4.054688 6.988281 -3.347656 7.84375 -2.859375 C 8.695312 -2.367188 9.625 -2.125 10.625 -2.125 C 11.644531 -2.125 12.578125 -2.367188 13.421875 -2.859375 C 14.273438 -3.347656 14.953125 -4.054688 15.453125 -4.984375 C 15.953125 -5.921875 16.203125 -7.019531 16.203125 -8.28125 Z M 16.203125 -8.28125 "/>
      </g>
    </g>
  </g>
  <g fill="#ff3131" fill-opacity="1">
    <g transform="translate(176.497456, 206.345598)">
      <g>
        <path d="M 3.1875 0.1875 C 2.664062 0.1875 2.222656 0.00390625 1.859375 -0.359375 C 1.492188 -0.722656 1.3125 -1.164062 1.3125 -1.6875 C 1.3125 -2.195312 1.492188 -2.632812 1.859375 -3 C 2.222656 -3.363281 2.664062 -3.546875 3.1875 -3.546875 C 3.6875 -3.546875 4.109375 -3.363281 4.453125 -3 C 4.804688 -2.632812 4.984375 -2.195312 4.984375 -1.6875 C 4.984375 -1.164062 4.804688 -0.722656 4.453125 -0.359375 C 4.109375 0.00390625 3.6875 0.1875 3.1875 0.1875 Z M 3.1875 0.1875 "/>
      </g>
    </g>
  </g>
  <g fill="#575657" fill-opacity="1">
    <g transform="translate(182.805461, 206.345598)">
      <g>
        <path d="M 3.78125 -19.109375 C 3.257812 -19.109375 2.820312 -19.285156 2.46875 -19.640625 C 2.125 -20.003906 1.953125 -20.445312 1.953125 -20.96875 C 1.953125 -21.488281 2.125 -21.925781 2.46875 -22.28125 C 2.820312 -22.644531 3.257812 -22.828125 3.78125 -22.828125 C 4.300781 -22.828125 4.734375 -22.644531 5.078125 -22.28125 C 5.429688 -21.925781 5.609375 -21.488281 5.609375 -20.96875 C 5.609375 -20.445312 5.429688 -20.003906 5.078125 -19.640625 C 4.734375 -19.285156 4.300781 -19.109375 3.78125 -19.109375 Z M 5.125 3.5625 C 5.125 5.03125 4.753906 6.101562 4.015625 6.78125 C 3.273438 7.457031 2.195312 7.796875 0.78125 7.796875 L -0.8125 7.796875 L -0.8125 5.484375 L 0.328125 5.484375 C 1.085938 5.484375 1.625 5.332031 1.9375 5.03125 C 2.25 4.738281 2.40625 4.234375 2.40625 3.515625 L 2.40625 -16.4375 L 5.125 -16.4375 Z M 5.125 3.5625 "/>
      </g>
    </g>
  </g>
  <g fill="#575657" fill-opacity="1">
    <g transform="translate(190.245459, 206.345598)">
      <g>
        <path d="M 9.484375 0.265625 C 7.941406 0.265625 6.546875 -0.0820312 5.296875 -0.78125 C 4.046875 -1.476562 3.066406 -2.472656 2.359375 -3.765625 C 1.648438 -5.054688 1.296875 -6.550781 1.296875 -8.25 C 1.296875 -9.925781 1.660156 -11.410156 2.390625 -12.703125 C 3.117188 -13.992188 4.113281 -14.984375 5.375 -15.671875 C 6.632812 -16.359375 8.039062 -16.703125 9.59375 -16.703125 C 11.15625 -16.703125 12.566406 -16.359375 13.828125 -15.671875 C 15.085938 -14.984375 16.082031 -14 16.8125 -12.71875 C 17.539062 -11.4375 17.90625 -9.945312 17.90625 -8.25 C 17.90625 -6.550781 17.53125 -5.054688 16.78125 -3.765625 C 16.03125 -2.472656 15.015625 -1.476562 13.734375 -0.78125 C 12.453125 -0.0820312 11.035156 0.265625 9.484375 0.265625 Z M 9.484375 -2.125 C 10.460938 -2.125 11.378906 -2.351562 12.234375 -2.8125 C 13.097656 -3.28125 13.796875 -3.972656 14.328125 -4.890625 C 14.859375 -5.804688 15.125 -6.925781 15.125 -8.25 C 15.125 -9.570312 14.863281 -10.691406 14.34375 -11.609375 C 13.820312 -12.523438 13.140625 -13.207031 12.296875 -13.65625 C 11.460938 -14.113281 10.550781 -14.34375 9.5625 -14.34375 C 8.5625 -14.34375 7.644531 -14.113281 6.8125 -13.65625 C 5.988281 -13.207031 5.328125 -12.523438 4.828125 -11.609375 C 4.328125 -10.691406 4.078125 -9.570312 4.078125 -8.25 C 4.078125 -6.90625 4.320312 -5.773438 4.8125 -4.859375 C 5.300781 -3.941406 5.957031 -3.253906 6.78125 -2.796875 C 7.601562 -2.347656 8.503906 -2.125 9.484375 -2.125 Z M 9.484375 -2.125 "/>
      </g>
    </g>
  </g>
  <g fill="#575657" fill-opacity="1">
    <g transform="translate(209.44544, 206.345598)">
      <g>
        <path d="M 5.046875 -13.375 C 5.597656 -14.351562 6.414062 -15.148438 7.5 -15.765625 C 8.582031 -16.390625 9.8125 -16.703125 11.1875 -16.703125 C 12.664062 -16.703125 13.992188 -16.351562 15.171875 -15.65625 C 16.359375 -14.957031 17.289062 -13.972656 17.96875 -12.703125 C 18.644531 -11.429688 18.984375 -9.957031 18.984375 -8.28125 C 18.984375 -6.625 18.644531 -5.144531 17.96875 -3.84375 C 17.289062 -2.539062 16.351562 -1.53125 15.15625 -0.8125 C 13.96875 -0.09375 12.644531 0.265625 11.1875 0.265625 C 9.769531 0.265625 8.523438 -0.0390625 7.453125 -0.65625 C 6.378906 -1.28125 5.578125 -2.070312 5.046875 -3.03125 L 5.046875 0 L 2.3125 0 L 2.3125 -22.203125 L 5.046875 -22.203125 Z M 16.203125 -8.28125 C 16.203125 -9.519531 15.953125 -10.597656 15.453125 -11.515625 C 14.953125 -12.441406 14.273438 -13.144531 13.421875 -13.625 C 12.578125 -14.101562 11.644531 -14.34375 10.625 -14.34375 C 9.625 -14.34375 8.695312 -14.097656 7.84375 -13.609375 C 6.988281 -13.117188 6.304688 -12.40625 5.796875 -11.46875 C 5.296875 -10.539062 5.046875 -9.46875 5.046875 -8.25 C 5.046875 -7.007812 5.296875 -5.921875 5.796875 -4.984375 C 6.304688 -4.054688 6.988281 -3.347656 7.84375 -2.859375 C 8.695312 -2.367188 9.625 -2.125 10.625 -2.125 C 11.644531 -2.125 12.578125 -2.367188 13.421875 -2.859375 C 14.273438 -3.347656 14.953125 -4.054688 15.453125 -4.984375 C 15.953125 -5.921875 16.203125 -7.019531 16.203125 -8.28125 Z M 16.203125 -8.28125 "/>
      </g>
    </g>
  </g>
  <g fill="#575657" fill-opacity="1">
    <g transform="translate(229.725422, 206.345598)">
      <g>
        <path d="M 8.125 0.265625 C 6.863281 0.265625 5.734375 0.0507812 4.734375 -0.375 C 3.734375 -0.800781 2.941406 -1.398438 2.359375 -2.171875 C 1.785156 -2.941406 1.46875 -3.828125 1.40625 -4.828125 L 4.234375 -4.828125 C 4.304688 -4.003906 4.6875 -3.332031 5.375 -2.8125 C 6.070312 -2.300781 6.976562 -2.046875 8.09375 -2.046875 C 9.132812 -2.046875 9.953125 -2.273438 10.546875 -2.734375 C 11.148438 -3.191406 11.453125 -3.769531 11.453125 -4.46875 C 11.453125 -5.1875 11.132812 -5.71875 10.5 -6.0625 C 9.863281 -6.414062 8.875 -6.765625 7.53125 -7.109375 C 6.3125 -7.429688 5.316406 -7.753906 4.546875 -8.078125 C 3.773438 -8.410156 3.113281 -8.898438 2.5625 -9.546875 C 2.007812 -10.203125 1.734375 -11.0625 1.734375 -12.125 C 1.734375 -12.957031 1.984375 -13.722656 2.484375 -14.421875 C 2.984375 -15.128906 3.691406 -15.6875 4.609375 -16.09375 C 5.535156 -16.5 6.585938 -16.703125 7.765625 -16.703125 C 9.585938 -16.703125 11.054688 -16.242188 12.171875 -15.328125 C 13.296875 -14.410156 13.898438 -13.148438 13.984375 -11.546875 L 11.25 -11.546875 C 11.1875 -12.410156 10.835938 -13.101562 10.203125 -13.625 C 9.578125 -14.144531 8.738281 -14.40625 7.6875 -14.40625 C 6.695312 -14.40625 5.910156 -14.191406 5.328125 -13.765625 C 4.753906 -13.347656 4.46875 -12.800781 4.46875 -12.125 C 4.46875 -11.582031 4.640625 -11.132812 4.984375 -10.78125 C 5.335938 -10.4375 5.78125 -10.15625 6.3125 -9.9375 C 6.84375 -9.726562 7.578125 -9.492188 8.515625 -9.234375 C 9.703125 -8.921875 10.664062 -8.609375 11.40625 -8.296875 C 12.144531 -7.984375 12.773438 -7.515625 13.296875 -6.890625 C 13.828125 -6.273438 14.101562 -5.46875 14.125 -4.46875 C 14.125 -3.570312 13.875 -2.757812 13.375 -2.03125 C 12.875 -1.3125 12.171875 -0.75 11.265625 -0.34375 C 10.359375 0.0625 9.3125 0.265625 8.125 0.265625 Z M 8.125 0.265625 "/>
      </g>
    </g>
  </g>
</svg>